<svg width="626" height="493" viewBox="0 0 626 493" fill="none" xmlns="http://www.w3.org/2000/svg">
<g filter="url(#filter0_d)">
<path fill-rule="evenodd" clip-rule="evenodd" d="M515.815 176.417C512.711 173.066 509.443 169.857 506.019 166.804C499.818 161.277 491.663 161.949 487.906 167.177C484.266 172.243 485.666 179.491 490.101 183.785L481.602 193.426C465.937 179.703 446.593 170.872 425.962 168.024L427.723 155.411C433.881 155.979 440.237 152.286 441.675 146.217C443.158 139.959 438.403 133.358 430.241 132.263C421.209 131.052 412.049 130.694 402.89 131.22C394.597 131.696 389.305 137.939 390.346 144.292C391.353 150.448 397.469 154.583 403.641 154.483L404.447 167.279C383.656 168.642 363.721 176.07 347.109 188.646L339.469 178.526C344.226 174.574 346.108 167.47 342.833 162.161C339.457 156.687 331.428 155.381 324.883 160.378C317.64 165.908 310.909 172.133 304.804 178.982C299.277 185.182 299.949 193.337 305.177 197.094C310.242 200.734 317.492 199.335 321.786 194.9L331.426 203.398C317.703 219.064 308.871 238.407 306.024 259.038L293.41 257.278C293.978 251.119 290.287 244.765 284.217 243.326C277.959 241.843 271.359 246.597 270.264 254.759C269.053 263.791 268.694 272.952 269.22 282.111C269.696 290.405 275.938 295.695 282.291 294.655C288.447 293.647 292.584 287.532 292.483 281.36L305.279 280.554C306.642 301.344 314.07 321.279 326.645 337.891L316.526 345.531C312.573 340.775 305.469 338.893 300.16 342.167C294.687 345.543 293.382 353.573 298.379 360.118C303.909 367.361 310.134 374.092 316.982 380.197C323.183 385.724 331.338 385.05 335.095 379.823C338.735 374.757 337.335 367.508 332.9 363.215L341.398 353.574C357.063 367.297 376.407 376.129 397.038 378.976L395.277 391.59C389.119 391.022 382.764 394.713 381.326 400.783C379.843 407.041 384.597 413.642 392.759 414.737C401.791 415.948 410.952 416.306 420.111 415.78C428.404 415.304 433.695 409.063 432.655 402.709C431.647 396.554 425.532 392.416 419.36 392.517L418.554 379.721C439.344 378.358 459.279 370.93 475.891 358.355L483.531 368.474C478.774 372.427 476.892 379.531 480.167 384.84C483.543 390.314 491.573 391.619 498.118 386.621C505.361 381.091 512.092 374.866 518.197 368.018C523.724 361.817 523.052 353.662 517.824 349.906C512.758 346.265 505.509 347.664 501.215 352.1L491.574 343.602C505.297 327.937 514.129 308.593 516.976 287.962L529.59 289.723C529.021 295.881 532.714 302.237 538.784 303.675C545.042 305.158 551.642 300.403 552.737 292.241C553.948 283.209 554.306 274.048 553.78 264.889C553.304 256.596 547.062 251.305 540.709 252.345C534.553 253.353 530.417 259.469 530.517 265.641L517.721 266.447C516.359 245.657 508.93 225.722 496.355 209.109L506.474 201.47C510.427 206.226 517.531 208.108 522.84 204.833C528.313 201.457 529.618 193.428 524.621 186.882C521.856 183.261 518.918 179.768 515.815 176.417L515.815 176.417Z" fill="#4F8A8B"/>
<path d="M403.889 215.76C408.779 221.077 417.054 221.423 422.371 216.533C427.688 211.643 428.034 203.368 423.144 198.051C418.254 192.734 409.979 192.388 404.662 197.278C399.345 202.168 398.999 210.443 403.889 215.76Z" fill="#3A6667"/>
<path d="M338.182 251.394C346.776 260.739 361.319 261.348 370.664 252.753C380.009 244.158 380.617 229.616 372.022 220.271C363.428 210.926 348.885 210.318 339.54 218.912C330.195 227.507 329.587 242.05 338.182 251.394Z" fill="#3A6667"/>
<path d="M339.86 317.158C345.335 323.111 354.599 323.498 360.553 318.023C366.506 312.548 366.893 303.284 361.418 297.331C355.943 291.377 346.678 290.99 340.725 296.465C334.772 301.94 334.385 311.205 339.86 317.158Z" fill="#3A6667"/>
<path d="M444.778 327.211C453.762 336.979 468.965 337.615 478.734 328.631C488.502 319.646 489.138 304.444 480.154 294.675C471.169 284.906 455.967 284.27 446.198 293.255C436.429 302.239 435.793 317.442 444.778 327.211Z" fill="#3A6667"/>
<path d="M471.23 238.137C473.39 240.486 477.047 240.639 479.396 238.479C481.746 236.318 481.899 232.662 479.738 230.312C477.577 227.963 473.921 227.81 471.571 229.97C469.222 232.131 469.069 235.788 471.23 238.137Z" fill="#3A6667"/>
<path d="M414.351 271.638C421.19 279.075 432.764 279.559 440.201 272.719C447.638 265.879 448.122 254.305 441.282 246.868C434.443 239.431 422.869 238.947 415.432 245.787C407.995 252.627 407.511 264.201 414.351 271.638Z" fill="#3A6667"/>
<path d="M385.398 336.574C389.119 340.619 395.414 340.883 399.46 337.162C403.505 333.442 403.768 327.146 400.048 323.101C396.327 319.056 390.032 318.792 385.987 322.513C381.941 326.233 381.678 332.529 385.398 336.574Z" fill="#3A6667"/>
</g>
<g filter="url(#filter1_d)">
<path fill-rule="evenodd" clip-rule="evenodd" d="M234.738 35.3283C229.133 34.4022 223.474 33.7413 217.782 33.3531C207.474 32.65 199.974 39.5294 200.269 47.531C200.555 55.2843 207.457 61.3396 215.09 62.1764L214.091 78.1311C188.233 76.5923 162.491 82.6653 140.048 95.5992L132.159 81.8628C138.644 77.7252 142.073 69.2502 138.858 62.1894C135.543 54.9092 125.837 52.0498 116.982 57.198C107.184 62.8951 97.9099 69.5284 89.3109 77.0294C81.525 83.8209 81.0868 93.9903 86.9534 99.4397C92.638 104.72 101.8 104.12 107.789 99.3148L118.339 111.274C98.9489 128.467 85.0254 150.968 78.2912 175.993L63.068 171.875C64.7274 164.364 61.1596 155.949 53.8935 153.229C46.4018 150.425 37.517 155.264 34.8964 165.166C31.9962 176.123 30.1294 187.372 29.3528 198.757C28.6498 209.065 35.5292 216.565 43.5308 216.27C51.2842 215.984 57.3409 209.082 58.1776 201.449L74.1309 202.448C72.5922 228.306 78.6651 254.047 91.599 276.491L77.8627 284.379C73.725 277.895 65.2515 274.466 58.1906 277.681C50.9104 280.996 48.0499 290.7 53.1981 299.555C58.8953 309.353 65.5297 318.629 73.0307 327.228C79.8223 335.014 89.9902 335.452 95.4395 329.585C100.72 323.901 100.122 314.739 95.3162 308.75L107.275 298.2C124.468 317.59 146.969 331.513 171.993 338.247L167.875 353.471C160.364 351.811 151.948 355.379 149.229 362.645C146.425 370.137 151.266 379.022 161.167 381.643C172.124 384.543 183.374 386.409 194.758 387.186C205.066 387.889 212.565 381.008 212.27 373.006C211.984 365.253 205.081 359.198 197.449 358.361L198.448 342.407C224.305 343.946 250.047 337.873 272.491 324.939L280.379 338.676C273.895 342.813 270.466 351.287 273.681 358.348C276.995 365.628 286.702 368.489 295.556 363.34C305.355 357.643 314.629 351.009 323.228 343.508C331.014 336.716 331.453 326.548 325.586 321.099C319.902 315.819 310.738 316.417 304.75 321.222L294.2 309.264C313.589 292.07 327.513 269.57 334.247 244.546L349.47 248.663C347.811 256.174 351.379 264.59 358.645 267.309C366.137 270.113 375.022 265.273 377.642 255.371C380.542 244.414 382.409 233.165 383.186 221.78C383.889 211.473 377.01 203.972 369.008 204.267C361.255 204.553 355.198 211.456 354.361 219.088L338.407 218.091C339.946 192.233 333.873 166.491 320.939 144.048L334.676 136.159C338.813 142.644 347.288 146.073 354.349 142.858C361.629 139.543 364.489 129.837 359.341 120.982C353.644 111.184 347.009 101.91 339.508 93.3106C332.716 85.5248 322.549 85.0853 317.099 90.952C311.819 96.6366 312.418 105.8 317.224 111.789L305.265 122.339C288.072 102.949 265.57 89.0254 240.546 82.2912L244.664 67.068C252.174 68.7273 260.59 65.1595 263.31 57.8936C266.114 50.4017 261.273 41.5168 251.371 38.8961C245.893 37.446 240.343 36.2547 234.738 35.3282L234.738 35.3283Z" fill="#FBD46D"/>
<path d="M154.76 159.337C163.62 160.833 172.015 154.863 173.511 146.003C175.006 137.143 169.036 128.748 160.176 127.253C151.316 125.757 142.922 131.727 141.426 140.587C139.93 149.447 145.9 157.842 154.76 159.337Z" fill="#C09F47"/>
<path d="M117.369 244.458C132.94 247.086 147.694 236.594 150.322 221.023C152.951 205.452 142.459 190.698 126.888 188.07C111.316 185.441 96.5628 195.933 93.9343 211.504C91.3059 227.076 101.798 241.829 117.369 244.458Z" fill="#C09F47"/>
<path d="M169.167 307.798C179.086 309.472 188.485 302.788 190.16 292.868C191.834 282.949 185.15 273.55 175.23 271.876C165.311 270.201 155.912 276.885 154.238 286.805C152.563 296.724 159.247 306.123 169.167 307.798Z" fill="#C09F47"/>
<path d="M279.926 237.669C296.203 240.417 311.626 229.449 314.374 213.171C317.122 196.894 306.153 181.471 289.876 178.723C273.598 175.975 258.175 186.943 255.428 203.221C252.68 219.498 263.648 234.921 279.926 237.669Z" fill="#C09F47"/>
<path d="M237.993 129.974C241.908 130.634 245.618 127.997 246.278 124.082C246.939 120.167 244.301 116.458 240.387 115.797C236.472 115.136 232.762 117.774 232.102 121.689C231.441 125.603 234.079 129.313 237.993 129.974Z" fill="#C09F47"/>
<path d="M207.65 206.265C220.042 208.357 231.784 200.007 233.876 187.615C235.967 175.223 227.617 163.481 215.225 161.39C202.833 159.298 191.092 167.648 189 180.04C186.908 192.432 195.258 204.173 207.65 206.265Z" fill="#C09F47"/>
<path d="M228.719 292.15C235.46 293.288 241.847 288.746 242.985 282.005C244.122 275.265 239.581 268.878 232.84 267.74C226.099 266.602 219.713 271.144 218.575 277.885C217.437 284.625 221.979 291.012 228.719 292.15Z" fill="#C09F47"/>
</g>
<g filter="url(#filter2_d)">
<path fill-rule="evenodd" clip-rule="evenodd" d="M385.35 14.0007C381.824 14.013 378.293 14.1931 374.769 14.5435C368.389 15.1781 364.509 20.1629 365.516 25.0291C366.492 29.7444 371.342 32.737 376.1 32.4606L377.136 42.3276C361.153 44.0571 346.027 50.4328 333.629 60.6664L327.382 53.0751C330.923 49.8731 332.146 44.3324 329.449 40.3435C326.669 36.2307 320.433 35.4835 315.546 39.5488C310.139 44.0475 305.148 49.0648 300.661 54.5435C296.598 59.504 297.38 65.7727 301.533 68.5015C305.558 71.1456 311.103 69.8322 314.271 66.2727L321.963 72.5012C311.873 85.0261 305.677 100.234 304.141 116.244L294.399 115.297C294.639 110.529 291.586 105.748 286.858 104.834C281.984 103.892 277.047 107.771 276.466 114.101C275.823 121.106 275.843 128.184 276.543 135.231C277.178 141.611 282.163 145.491 287.029 144.484C291.744 143.508 294.738 138.658 294.461 133.901L304.327 132.864C306.057 148.847 312.433 163.973 322.666 176.371L315.075 182.618C311.873 179.077 306.333 177.854 302.344 180.551C298.231 183.331 297.483 189.566 301.549 194.453C306.047 199.861 311.066 204.852 316.544 209.339C321.505 213.402 327.773 212.62 330.501 208.467C333.145 204.442 331.833 198.897 328.273 195.729L334.502 188.037C347.027 198.127 362.235 204.323 378.244 205.86L377.297 215.601C372.529 215.361 367.748 218.414 366.834 223.142C365.892 228.016 369.772 232.953 376.102 233.534C383.107 234.177 390.184 234.158 397.232 233.457C403.612 232.822 407.491 227.836 406.484 222.97C405.508 218.255 400.658 215.262 395.9 215.539L394.864 205.673C410.847 203.943 425.973 197.567 438.371 187.334L444.618 194.925C441.077 198.127 439.854 203.667 442.551 207.656C445.331 211.769 451.567 212.517 456.454 208.451C461.861 203.953 466.852 198.934 471.339 193.456C475.402 188.495 474.621 182.227 470.468 179.499C466.443 176.855 460.897 178.167 457.729 181.727L450.037 175.498C460.127 162.973 466.323 147.765 467.859 131.756L477.601 132.703C477.361 137.471 480.414 142.252 485.142 143.166C490.016 144.108 494.953 140.228 495.534 133.898C496.177 126.893 496.157 119.816 495.457 112.768C494.822 106.388 489.837 102.508 484.971 103.516C480.256 104.491 477.262 109.341 477.539 114.099L467.673 115.136C465.943 99.1532 459.567 84.0273 449.334 71.6288L456.925 65.3821C460.127 68.923 465.668 70.1461 469.657 67.4493C473.769 64.6687 474.517 58.4333 470.451 53.5464C465.953 48.1386 460.934 43.1485 455.456 38.661C450.495 34.5979 444.227 35.3793 441.499 39.5325C438.855 43.5568 440.168 49.1027 443.727 52.2713L437.499 59.9628C424.974 49.8728 409.766 43.6765 393.756 42.1406L394.703 32.3991C399.471 32.6386 404.252 29.5858 405.166 24.8584C406.108 19.984 402.228 15.0467 395.898 14.4657C392.395 14.1443 388.876 13.9886 385.35 14.0006V14.0007Z" fill="#F3E9E9"/>
<path d="M349.217 98.1523C354.793 98.1523 359.314 93.6316 359.314 88.0551C359.314 82.4787 354.793 77.958 349.217 77.958C343.64 77.958 339.12 82.4787 339.12 88.0551C339.12 93.6316 343.64 98.1523 349.217 98.1523Z" fill="#CFCFCF"/>
<path d="M335.128 154.106C344.928 154.106 352.873 146.161 352.873 136.361C352.873 126.56 344.928 118.615 335.128 118.615C325.327 118.615 317.382 126.56 317.382 136.361C317.382 146.161 325.327 154.106 335.128 154.106Z" fill="#CFCFCF"/>
<path d="M373.369 187.517C379.613 187.517 384.674 182.456 384.674 176.212C384.674 169.969 379.613 164.908 373.369 164.908C367.126 164.908 362.064 169.969 362.064 176.212C362.064 182.456 367.126 187.517 373.369 187.517Z" fill="#CFCFCF"/>
<path d="M433.906 133.159C444.151 133.159 452.457 124.854 452.457 114.609C452.457 104.363 444.151 96.058 433.906 96.058C423.661 96.058 415.355 104.363 415.355 114.609C415.355 124.854 423.661 133.159 433.906 133.159Z" fill="#CFCFCF"/>
<path d="M397.119 71.5844C399.583 71.5844 401.581 69.5869 401.581 67.1229C401.581 64.6589 399.583 62.6614 397.119 62.6614C394.655 62.6614 392.658 64.6589 392.658 67.1229C392.658 69.5869 394.655 71.5844 397.119 71.5844Z" fill="#CFCFCF"/>
<path d="M386.431 121.407C394.231 121.407 400.554 115.084 400.554 107.285C400.554 99.485 394.231 93.1621 386.431 93.1621C378.632 93.1621 372.309 99.485 372.309 107.285C372.309 115.084 378.632 121.407 386.431 121.407Z" fill="#CFCFCF"/>
<path d="M408.197 171.789C412.44 171.789 415.879 168.35 415.879 164.108C415.879 159.865 412.44 156.426 408.197 156.426C403.955 156.426 400.516 159.865 400.516 164.108C400.516 168.35 403.955 171.789 408.197 171.789Z" fill="#CFCFCF"/>
</g>
<defs>
<filter id="filter0_d" x="203.151" y="70.1509" width="422.699" height="422.699" filterUnits="userSpaceOnUse" color-interpolation-filters="sRGB">
<feFlood flood-opacity="0" result="BackgroundImageFix"/>
<feColorMatrix in="SourceAlpha" type="matrix" values="0 0 0 0 0 0 0 0 0 0 0 0 0 0 0 0 0 0 127 0"/>
<feOffset dx="3" dy="8"/>
<feGaussianBlur stdDeviation="5"/>
<feColorMatrix type="matrix" values="0 0 0 0 0 0 0 0 0 0 0 0 0 0 0 0 0 0 0.25 0"/>
<feBlend mode="normal" in2="BackgroundImageFix" result="effect1_dropShadow"/>
<feBlend mode="normal" in="SourceGraphic" in2="effect1_dropShadow" result="shape"/>
</filter>
<filter id="filter1_d" x="0" y="0" width="428.538" height="428.539" filterUnits="userSpaceOnUse" color-interpolation-filters="sRGB">
<feFlood flood-opacity="0" result="BackgroundImageFix"/>
<feColorMatrix in="SourceAlpha" type="matrix" values="0 0 0 0 0 0 0 0 0 0 0 0 0 0 0 0 0 0 127 0"/>
<feOffset dx="8" dy="4"/>
<feGaussianBlur stdDeviation="5"/>
<feColorMatrix type="matrix" values="0 0 0 0 0 0 0 0 0 0 0 0 0 0 0 0 0 0 0.25 0"/>
<feBlend mode="normal" in2="BackgroundImageFix" result="effect1_dropShadow"/>
<feBlend mode="normal" in="SourceGraphic" in2="effect1_dropShadow" result="shape"/>
</filter>
<filter id="filter2_d" x="270" y="8" width="240" height="240" filterUnits="userSpaceOnUse" color-interpolation-filters="sRGB">
<feFlood flood-opacity="0" result="BackgroundImageFix"/>
<feColorMatrix in="SourceAlpha" type="matrix" values="0 0 0 0 0 0 0 0 0 0 0 0 0 0 0 0 0 0 127 0"/>
<feOffset dx="4" dy="4"/>
<feGaussianBlur stdDeviation="5"/>
<feColorMatrix type="matrix" values="0 0 0 0 0 0 0 0 0 0 0 0 0 0 0 0 0 0 0.25 0"/>
<feBlend mode="normal" in2="BackgroundImageFix" result="effect1_dropShadow"/>
<feBlend mode="normal" in="SourceGraphic" in2="effect1_dropShadow" result="shape"/>
</filter>
</defs>
</svg>
